<svg width="218" height="31" viewBox="0 0 218 31" fill="none" xmlns="http://www.w3.org/2000/svg">
<g filter="url(#filter0_d)">
<path d="M19.12 4.69C18.52 4.03 17.72 3.49 16.72 3.07C15.72 2.63 14.58 2.41 13.3 2.41C11.42 2.41 10.05 2.77 9.19 3.49C8.33 4.19 7.9 5.15 7.9 6.37C7.9 7.21 8.11 7.87 8.53 8.35C8.95 8.83 9.59 9.23 10.45 9.55C11.33 9.85 12.45 10.15 13.81 10.45C15.33 10.77 16.64 11.15 17.74 11.59C18.84 12.03 19.69 12.63 20.29 13.39C20.89 14.13 21.19 15.14 21.19 16.42C21.19 17.72 20.86 18.8 20.2 19.66C19.54 20.52 18.63 21.16 17.47 21.58C16.31 21.98 14.99 22.18 13.51 22.18C10.19 22.18 7.34 21.15 4.96 19.09L6.01 17.38C6.77 18.18 7.81 18.87 9.13 19.45C10.47 20.03 11.95 20.32 13.57 20.32C15.25 20.32 16.57 20.01 17.53 19.39C18.49 18.77 18.97 17.85 18.97 16.63C18.97 15.75 18.73 15.05 18.25 14.53C17.77 13.99 17.05 13.55 16.09 13.21C15.13 12.87 13.95 12.54 12.55 12.22C11.07 11.88 9.82 11.5 8.8 11.08C7.8 10.66 7.04 10.11 6.52 9.43C6 8.75 5.74 7.83 5.74 6.67C5.74 5.35 6.06 4.24 6.7 3.34C7.36 2.42 8.26 1.73 9.4 1.27C10.54 0.789999 11.85 0.549999 13.33 0.549999C14.73 0.549999 15.99 0.769999 17.11 1.21C18.23 1.63 19.24 2.23 20.14 3.01L19.12 4.69ZM31.709 21.25C31.469 21.35 31.029 21.53 30.389 21.79C29.749 22.05 29.009 22.18 28.169 22.18C27.289 22.18 26.519 21.93 25.859 21.43C25.199 20.93 24.869 20.18 24.869 19.18V7.99H22.709V6.37H24.869V1.09H26.909V6.37H30.509V7.99H26.909V18.61C26.949 19.19 27.149 19.62 27.509 19.9C27.889 20.16 28.319 20.29 28.799 20.29C29.359 20.29 29.859 20.2 30.299 20.02C30.759 19.82 31.049 19.68 31.169 19.6L31.709 21.25ZM40.6541 22.3C39.1541 22.3 37.8141 21.93 36.6341 21.19C35.4741 20.45 34.5641 19.47 33.9041 18.25C33.2441 17.01 32.9141 15.67 32.9141 14.23C32.9141 12.77 33.2441 11.43 33.9041 10.21C34.5841 8.97 35.5041 7.98 36.6641 7.24C37.8441 6.48 39.1741 6.1 40.6541 6.1C42.1541 6.1 43.4841 6.48 44.6441 7.24C45.8241 7.98 46.7441 8.97 47.4041 10.21C48.0841 11.43 48.4241 12.77 48.4241 14.23C48.4241 15.67 48.0941 17.01 47.4341 18.25C46.7741 19.47 45.8541 20.45 44.6741 21.19C43.5141 21.93 42.1741 22.3 40.6541 22.3ZM34.9841 14.26C34.9841 15.42 35.2341 16.48 35.7341 17.44C36.2541 18.38 36.9441 19.13 37.8041 19.69C38.6641 20.23 39.6141 20.5 40.6541 20.5C41.6941 20.5 42.6441 20.22 43.5041 19.66C44.3641 19.1 45.0541 18.34 45.5741 17.38C46.0941 16.42 46.3541 15.36 46.3541 14.2C46.3541 13.04 46.0941 11.98 45.5741 11.02C45.0541 10.06 44.3641 9.3 43.5041 8.74C42.6441 8.18 41.6941 7.9 40.6541 7.9C39.6341 7.9 38.6941 8.19 37.8341 8.77C36.9741 9.33 36.2841 10.09 35.7641 11.05C35.2441 12.01 34.9841 13.08 34.9841 14.26ZM59.6359 8.17C58.2759 8.21 57.0759 8.59 56.0359 9.31C55.0159 10.03 54.2959 11.02 53.8759 12.28V22H51.8359V6.37H53.7559V10.12C54.2959 9.02 55.0059 8.13 55.8859 7.45C56.7859 6.77 57.7359 6.39 58.7359 6.31C58.9359 6.29 59.1059 6.28 59.2459 6.28C59.3859 6.28 59.5159 6.29 59.6359 6.31V8.17ZM68.6348 22.3C67.1348 22.3 65.7948 21.93 64.6148 21.19C63.4348 20.45 62.5048 19.46 61.8248 18.22C61.1448 16.98 60.8048 15.62 60.8048 14.14C60.8048 12.68 61.1348 11.34 61.7948 10.12C62.4748 8.9 63.4048 7.93 64.5848 7.21C65.7648 6.47 67.1048 6.1 68.6048 6.1C70.1448 6.1 71.4948 6.47 72.6548 7.21C73.8148 7.95 74.7148 8.93 75.3548 10.15C76.0148 11.35 76.3448 12.67 76.3448 14.11C76.3448 14.43 76.3348 14.7 76.3148 14.92H62.9348C63.0348 16.04 63.3548 17.04 63.8948 17.92C64.4348 18.78 65.1248 19.47 65.9648 19.99C66.8048 20.49 67.7248 20.74 68.7248 20.74C69.7448 20.74 70.7048 20.48 71.6048 19.96C72.5048 19.44 73.1448 18.76 73.5248 17.92L75.2948 18.4C74.9748 19.16 74.4748 19.84 73.7948 20.44C73.1348 21.02 72.3648 21.48 71.4848 21.82C70.6048 22.14 69.6548 22.3 68.6348 22.3ZM62.8748 13.45H74.4248C74.3448 12.33 74.0348 11.34 73.4948 10.48C72.9548 9.6 72.2648 8.92 71.4248 8.44C70.5848 7.94 69.6548 7.69 68.6348 7.69C67.6148 7.69 66.6848 7.94 65.8448 8.44C65.0048 8.92 64.3148 9.6 63.7748 10.48C63.2548 11.34 62.9548 12.33 62.8748 13.45ZM86.1487 11.2C86.1487 9.92 86.3687 8.65 86.8087 7.39C87.2687 6.13 87.9287 4.99 88.7887 3.97C89.6487 2.93 90.7087 2.11 91.9687 1.51C93.2287 0.889999 94.6587 0.579999 96.2587 0.579999C98.1387 0.579999 99.7587 1.02 101.119 1.9C102.479 2.76 103.479 3.87 104.119 5.23L102.469 6.25C102.009 5.31 101.429 4.57 100.729 4.03C100.029 3.47 99.2787 3.07 98.4787 2.83C97.6987 2.59 96.9187 2.47 96.1387 2.47C94.8587 2.47 93.7287 2.73 92.7487 3.25C91.7687 3.75 90.9387 4.43 90.2587 5.29C89.5987 6.15 89.0987 7.1 88.7587 8.14C88.4187 9.18 88.2487 10.24 88.2487 11.32C88.2487 12.5 88.4487 13.63 88.8487 14.71C89.2487 15.77 89.8087 16.72 90.5287 17.56C91.2487 18.4 92.0887 19.07 93.0487 19.57C94.0287 20.05 95.0887 20.29 96.2287 20.29C97.0287 20.29 97.8487 20.15 98.6887 19.87C99.5287 19.59 100.309 19.16 101.029 18.58C101.749 18 102.339 17.25 102.799 16.33L104.539 17.23C104.079 18.29 103.389 19.19 102.469 19.93C101.569 20.67 100.549 21.23 99.4087 21.61C98.2887 21.99 97.1887 22.18 96.1087 22.18C94.6487 22.18 93.3087 21.87 92.0887 21.25C90.8687 20.61 89.8087 19.77 88.9087 18.73C88.0287 17.67 87.3487 16.49 86.8687 15.19C86.3887 13.87 86.1487 12.54 86.1487 11.2ZM106.445 17.5C106.445 16.54 106.725 15.71 107.285 15.01C107.845 14.29 108.615 13.73 109.595 13.33C110.595 12.93 111.745 12.73 113.045 12.73C113.805 12.73 114.595 12.8 115.415 12.94C116.235 13.06 116.965 13.23 117.605 13.45V12.13C117.605 10.81 117.215 9.76 116.435 8.98C115.655 8.2 114.575 7.81 113.195 7.81C112.375 7.81 111.555 7.97 110.735 8.29C109.915 8.59 109.065 9.04 108.185 9.64L107.405 8.2C108.425 7.5 109.425 6.98 110.405 6.64C111.385 6.28 112.385 6.1 113.405 6.1C115.325 6.1 116.845 6.65 117.965 7.75C119.085 8.85 119.645 10.37 119.645 12.31V19.54C119.645 20.08 119.895 20.36 120.395 20.38V22C119.955 22.06 119.645 22.08 119.465 22.06C118.965 22.04 118.585 21.88 118.325 21.58C118.065 21.28 117.925 20.96 117.905 20.62L117.875 19.48C117.175 20.38 116.265 21.08 115.145 21.58C114.025 22.06 112.885 22.3 111.725 22.3C110.705 22.3 109.795 22.09 108.995 21.67C108.195 21.23 107.565 20.65 107.105 19.93C106.665 19.19 106.445 18.38 106.445 17.5ZM116.915 18.7C117.375 18.16 117.605 17.66 117.605 17.2V14.92C116.225 14.38 114.785 14.11 113.285 14.11C111.825 14.11 110.645 14.4 109.745 14.98C108.845 15.56 108.395 16.35 108.395 17.35C108.395 18.21 108.725 18.99 109.385 19.69C110.065 20.39 111.005 20.74 112.205 20.74C113.185 20.74 114.095 20.55 114.935 20.17C115.795 19.79 116.455 19.3 116.915 18.7ZM131.853 8.17C130.493 8.21 129.293 8.59 128.253 9.31C127.233 10.03 126.513 11.02 126.093 12.28V22H124.053V6.37H125.973V10.12C126.513 9.02 127.223 8.13 128.103 7.45C129.003 6.77 129.953 6.39 130.953 6.31C131.153 6.29 131.323 6.28 131.463 6.28C131.603 6.28 131.733 6.29 131.853 6.31V8.17ZM140.762 22.3C139.262 22.3 137.922 21.93 136.742 21.19C135.582 20.45 134.672 19.47 134.012 18.25C133.352 17.01 133.022 15.67 133.022 14.23C133.022 12.77 133.352 11.43 134.012 10.21C134.692 8.97 135.612 7.98 136.772 7.24C137.952 6.48 139.282 6.1 140.762 6.1C142.262 6.1 143.592 6.48 144.752 7.24C145.932 7.98 146.852 8.97 147.512 10.21C148.192 11.43 148.532 12.77 148.532 14.23C148.532 15.67 148.202 17.01 147.542 18.25C146.882 19.47 145.962 20.45 144.782 21.19C143.622 21.93 142.282 22.3 140.762 22.3ZM135.092 14.26C135.092 15.42 135.342 16.48 135.842 17.44C136.362 18.38 137.052 19.13 137.912 19.69C138.772 20.23 139.722 20.5 140.762 20.5C141.802 20.5 142.752 20.22 143.612 19.66C144.472 19.1 145.162 18.34 145.682 17.38C146.202 16.42 146.462 15.36 146.462 14.2C146.462 13.04 146.202 11.98 145.682 11.02C145.162 10.06 144.472 9.3 143.612 8.74C142.752 8.18 141.802 7.9 140.762 7.9C139.742 7.9 138.802 8.19 137.942 8.77C137.082 9.33 136.392 10.09 135.872 11.05C135.352 12.01 135.092 13.08 135.092 14.26ZM152.033 0.0999994H154.073V18.46C154.073 19.24 154.203 19.75 154.463 19.99C154.743 20.23 155.093 20.35 155.513 20.35C155.873 20.35 156.233 20.31 156.593 20.23C156.973 20.15 157.283 20.07 157.523 19.99L157.883 21.64C157.503 21.8 157.033 21.93 156.473 22.03C155.933 22.13 155.463 22.18 155.063 22.18C154.143 22.18 153.403 21.91 152.843 21.37C152.303 20.83 152.033 20.09 152.033 19.15V0.0999994ZM160.117 3.1V0.0999994H162.157V3.1H160.117ZM160.117 22V6.37H162.157V22H160.117ZM179.79 22H177.75V13.27C177.75 11.43 177.47 10.09 176.91 9.25C176.37 8.39 175.53 7.96 174.39 7.96C173.59 7.96 172.8 8.16 172.02 8.56C171.24 8.94 170.55 9.47 169.95 10.15C169.37 10.81 168.95 11.57 168.69 12.43V22H166.65V6.37H168.51V9.91C169.13 8.77 170.04 7.85 171.24 7.15C172.44 6.45 173.74 6.1 175.14 6.1C176.3 6.1 177.22 6.38 177.9 6.94C178.58 7.48 179.06 8.26 179.34 9.28C179.64 10.28 179.79 11.47 179.79 12.85V22ZM182.881 17.5C182.881 16.54 183.161 15.71 183.721 15.01C184.281 14.29 185.051 13.73 186.031 13.33C187.031 12.93 188.181 12.73 189.481 12.73C190.241 12.73 191.031 12.8 191.851 12.94C192.671 13.06 193.401 13.23 194.041 13.45V12.13C194.041 10.81 193.651 9.76 192.871 8.98C192.091 8.2 191.011 7.81 189.631 7.81C188.811 7.81 187.991 7.97 187.171 8.29C186.351 8.59 185.501 9.04 184.621 9.64L183.841 8.2C184.861 7.5 185.861 6.98 186.841 6.64C187.821 6.28 188.821 6.1 189.841 6.1C191.761 6.1 193.281 6.65 194.401 7.75C195.521 8.85 196.081 10.37 196.081 12.31V19.54C196.081 20.08 196.331 20.36 196.831 20.38V22C196.391 22.06 196.081 22.08 195.901 22.06C195.401 22.04 195.021 21.88 194.761 21.58C194.501 21.28 194.361 20.96 194.341 20.62L194.311 19.48C193.611 20.38 192.701 21.08 191.581 21.58C190.461 22.06 189.321 22.3 188.161 22.3C187.141 22.3 186.231 22.09 185.431 21.67C184.631 21.23 184.001 20.65 183.541 19.93C183.101 19.19 182.881 18.38 182.881 17.5ZM193.351 18.7C193.811 18.16 194.041 17.66 194.041 17.2V14.92C192.661 14.38 191.221 14.11 189.721 14.11C188.261 14.11 187.081 14.4 186.181 14.98C185.281 15.56 184.831 16.35 184.831 17.35C184.831 18.21 185.161 18.99 185.821 19.69C186.501 20.39 187.441 20.74 188.641 20.74C189.621 20.74 190.531 20.55 191.371 20.17C192.231 19.79 192.891 19.3 193.351 18.7ZM198.581 6.37L199.091 3.16H198.371V0.0999994H200.351V3.16L199.601 6.37H198.581ZM207.757 22.3C206.477 22.3 205.287 22.09 204.187 21.67C203.107 21.23 202.157 20.59 201.337 19.75L202.177 18.31C203.057 19.13 203.937 19.73 204.817 20.11C205.717 20.47 206.667 20.65 207.667 20.65C208.867 20.65 209.847 20.41 210.607 19.93C211.387 19.43 211.777 18.72 211.777 17.8C211.777 17.18 211.587 16.71 211.207 16.39C210.847 16.05 210.317 15.78 209.617 15.58C208.937 15.38 208.117 15.15 207.157 14.89C206.077 14.59 205.167 14.28 204.427 13.96C203.707 13.62 203.157 13.2 202.777 12.7C202.417 12.18 202.237 11.51 202.237 10.69C202.237 9.69 202.487 8.85 202.987 8.17C203.507 7.49 204.207 6.98 205.087 6.64C205.987 6.28 206.987 6.1 208.087 6.1C209.287 6.1 210.347 6.29 211.267 6.67C212.187 7.05 212.937 7.58 213.517 8.26L212.527 9.64C211.987 9 211.317 8.53 210.517 8.23C209.737 7.91 208.887 7.75 207.967 7.75C207.327 7.75 206.717 7.84 206.137 8.02C205.557 8.18 205.077 8.46 204.697 8.86C204.337 9.24 204.157 9.77 204.157 10.45C204.157 11.29 204.467 11.87 205.087 12.19C205.707 12.51 206.647 12.85 207.907 13.21C209.087 13.53 210.117 13.85 210.997 14.17C211.877 14.49 212.557 14.92 213.037 15.46C213.517 15.98 213.757 16.71 213.757 17.65C213.757 19.11 213.207 20.25 212.107 21.07C211.007 21.89 209.557 22.3 207.757 22.3Z" fill="black"/>
</g>
<defs>
<filter id="filter0_d" x="0.960007" y="0.100006" width="216.797" height="30.2" filterUnits="userSpaceOnUse" color-interpolation-filters="sRGB">
<feFlood flood-opacity="0" result="BackgroundImageFix"/>
<feColorMatrix in="SourceAlpha" type="matrix" values="0 0 0 0 0 0 0 0 0 0 0 0 0 0 0 0 0 0 127 0"/>
<feOffset dy="4"/>
<feGaussianBlur stdDeviation="2"/>
<feColorMatrix type="matrix" values="0 0 0 0 0 0 0 0 0 0 0 0 0 0 0 0 0 0 0.25 0"/>
<feBlend mode="normal" in2="BackgroundImageFix" result="effect1_dropShadow"/>
<feBlend mode="normal" in="SourceGraphic" in2="effect1_dropShadow" result="shape"/>
</filter>
</defs>
</svg>
